<svg id="Calque_1" data-name="Calque 1" xmlns="http://www.w3.org/2000/svg" viewBox="0 0 339.02 495.43"><defs><style>.cls-1{fill:#04617b;}.cls-2{fill:#393e46;}</style></defs><path class="cls-1" d="M791.07,894.86H677.86v-3.28H682a27.08,27.08,0,0,0,19.83-8.33q8.33-8.31,8.32-25V629.81q0-16.23-7.71-25.17t-20.85-8.94h-3.7v-3.49h98.83a109.92,109.92,0,0,1,36,5.65,82.51,82.51,0,0,1,27.84,15.62,71.57,71.57,0,0,1,17.57,22.6,61.81,61.81,0,0,1,6.16,27.43q0,27.33-17.67,44.38T799.09,733v.82a220.46,220.46,0,0,1,26.09,4.31,98,98,0,0,1,22.6,8,83.54,83.54,0,0,1,18.9,13.36,79.63,79.63,0,0,1,13.57,16.23,72.59,72.59,0,0,1,8.42,19.21,79.19,79.19,0,0,1,2.88,21.27q0,23.63-12.23,40.68t-27.63,25.89Q829.7,894.86,791.07,894.86ZM741.35,731.11h19.72q24.25,0,34.52-4.94a75.31,75.31,0,0,0,13.67-9q7.08-5.75,13.56-18.08t6.47-29.79A76.85,76.85,0,0,0,825,643.47a66.16,66.16,0,0,0-12.53-21.67A59.23,59.23,0,0,0,792.92,607a57,57,0,0,0-24.65-5.34q-11.71,0-26.92,4.52Zm31,9.24h-31V849.46a65,65,0,0,0,2.16,18.18q2.16,7.29,11.81,12.64t29.79,5.34q41.71,0,59.38-27.74,12.13-19.11,12.13-42.94a77.84,77.84,0,0,0-6.06-31.23,65.37,65.37,0,0,0-16.65-23.33Q823.34,751,807.3,745.69A109.82,109.82,0,0,0,772.38,740.35Z" transform="translate(-552.53 -399.43)"/><path class="cls-2" d="M711.15,464.16h-3.29q-2.88-22-19.21-38.53t-43-16.54q-17.48,0-31,8.22a56,56,0,0,0-21,22.39q-7.39,14.19-7.39,32.47a67.2,67.2,0,0,0,4.41,25.17,56.15,56.15,0,0,0,13.05,19.41A118.57,118.57,0,0,0,624,532.47q11.72,7.31,31.64,18.39,33.29,18.3,51.78,36.47t18.49,49.83a75.93,75.93,0,0,1-10,37.29q-10,18-30.1,29.49T636,715.44q-18.71,0-33.08-4a173.17,173.17,0,0,1-29.18-11.19q-6.16-2.06-8.42-2.06-4.32,0-5.65,3.09T556,714.62h-3.49V638.8H556q7.4,33.29,28.77,50.34t52,17.06q23,0,36.88-8.63t19.21-21A61.63,61.63,0,0,0,698.21,652q0-25.47-15.52-41.6t-47.15-33q-21.78-11.91-32.26-18.49A130.27,130.27,0,0,1,582,541.82a78.71,78.71,0,0,1-17.15-24.76q-6.37-14.28-6.37-32.77a80.42,80.42,0,0,1,11.3-40.89,84.37,84.37,0,0,1,32.05-31.33q20.74-11.82,47-11.82A132.16,132.16,0,0,1,689.78,407a20,20,0,0,0,8.84,1.64q6.78,0,9.24-9.25h3.29Z" transform="translate(-552.53 -399.43)"/></svg>