<?xml version="1.0" encoding="UTF-8" standalone="no"?>
<!-- Created with Inkscape (http://www.inkscape.org/) -->

<svg
   width="48"
   height="48"
   viewBox="0 0 12.7 12.7"
   version="1.1"
   id="svg1664"
   inkscape:version="1.1.2 (b8e25be8, 2022-02-05)"
   sodipodi:docname="Bash.svg"
   xmlns:inkscape="http://www.inkscape.org/namespaces/inkscape"
   xmlns:sodipodi="http://sodipodi.sourceforge.net/DTD/sodipodi-0.dtd"
   xmlns="http://www.w3.org/2000/svg"
   xmlns:svg="http://www.w3.org/2000/svg">
  <sodipodi:namedview
     id="namedview1666"
     pagecolor="#505050"
     bordercolor="#eeeeee"
     borderopacity="1"
     inkscape:pageshadow="0"
     inkscape:pageopacity="0"
     inkscape:pagecheckerboard="0"
     inkscape:document-units="mm"
     showgrid="false"
     units="px"
     inkscape:zoom="3.274992"
     inkscape:cx="36.793984"
     inkscape:cy="39.694754"
     inkscape:window-width="1792"
     inkscape:window-height="1092"
     inkscape:window-x="0"
     inkscape:window-y="28"
     inkscape:window-maximized="0"
     inkscape:current-layer="layer1" />
  <defs
     id="defs1661" />
  <g
     inkscape:label="Calque 1"
     inkscape:groupmode="layer"
     id="layer1">
    <g
       id="g1754"
       transform="matrix(0.5,0,0,0.5,-13.254284,-16.570683)">
      <path
         d="m 48.693521,38.751386 -7.576873,-4.497652 c -0.904346,-0.53684 -2.019035,-0.53684 -2.923381,0 l -7.576873,4.497652 C 29.712313,39.288225 29.1551,40.280148 29.1551,41.353827 v 8.995305 c 0,1.073414 0.557213,2.065866 1.461559,2.602706 l 7.576872,4.496858 c 0.452173,0.268552 0.956469,0.402431 1.461559,0.402431 0.504825,0 1.009121,-0.133879 1.461293,-0.402431 l 7.576873,-4.496858 c 0.904346,-0.53684 1.461823,-1.529292 1.461823,-2.602706 v -8.995305 c 0,-1.073679 -0.557477,-2.065602 -1.461558,-2.602441 z"
         id="Fill-2"
         fill="#fefefe"
         style="fill-rule:evenodd;stroke:none;stroke-width:0.264583" />
      <path
         d="M 38.458353,56.988189 30.88148,52.49133 C 30.140382,52.051328 29.680007,51.230591 29.680007,50.348999 V 41.35396 c 0,-0.881592 0.460375,-1.702329 1.201208,-2.142067 l 7.577138,-4.497652 c 0.363273,-0.215635 0.777081,-0.329671 1.19671,-0.329671 0.419365,0 0.833173,0.114036 1.196711,0.329671 l 7.576873,4.497652 c 0.624416,0.370681 1.045633,1.012561 1.164166,1.732492 -0.251354,-0.536311 -0.818091,-0.682096 -1.478491,-0.296334 l -7.168092,4.427538 c -0.893763,0.522552 -1.55284,1.108869 -1.553369,2.186516 v 8.832586 c -5.29e-4,0.645319 0.260086,1.06336 0.6604,1.184539 -0.131498,0.02276 -0.264054,0.03863 -0.398198,0.03863 -0.419629,0 -0.833437,-0.114036 -1.19671,-0.329671 M 48.693494,38.751254 41.116622,34.253866 c -0.452173,-0.268552 -0.956998,-0.402696 -1.461559,-0.402696 -0.504825,0 -1.00965,0.134144 -1.461823,0.402696 l -7.576872,4.497388 c -0.904082,0.536839 -1.461294,1.529027 -1.461294,2.602706 v 8.995039 c 0,1.073415 0.557212,2.065867 1.461558,2.602706 l 7.576873,4.497123 c 0.452437,0.268288 0.956733,0.402432 1.461558,0.402432 0.504825,0 1.009121,-0.134144 1.461294,-0.402432 l 7.577137,-4.497123 c 0.904346,-0.536839 1.461559,-1.529291 1.461559,-2.602706 V 41.35396 c 0,-1.073679 -0.557213,-2.065867 -1.461559,-2.602706"
         id="Fill-4"
         fill="#3e474a"
         style="fill:#333333;fill-opacity:1;fill-rule:evenodd;stroke:none;stroke-width:0.264583" />
      <path
         d="M 46.70732,51.218658 44.820577,52.3479 c -0.05001,0.0291 -0.08678,0.06191 -0.08705,0.121973 v 0.493712 c 0,0.06032 0.04048,0.08546 0.09049,0.05609 l 1.915848,-1.164431 c 0.05001,-0.02911 0.05768,-0.08493 0.05794,-0.144992 V 51.27475 c 0,-0.06006 -0.04048,-0.0852 -0.09049,-0.05609"
         id="Fill-6"
         fill="#47b353"
         style="fill:#ffffff;fill-rule:evenodd;stroke:none;stroke-width:0.264583" />
      <path
         d="m 42.689675,47.062927 c 0.06112,-0.03096 0.11139,0.0071 0.112184,0.08705 l 0.0063,0.652727 c 0.273314,-0.108744 0.510645,-0.137848 0.725752,-0.08811 0.04657,0.01243 0.0672,0.07594 0.04815,0.151342 l -0.143669,0.578379 c -0.01111,0.04366 -0.03572,0.08784 -0.06535,0.115358 -0.01244,0.01217 -0.02513,0.0217 -0.03784,0.02805 -0.01931,0.0098 -0.03836,0.01296 -0.05662,0.0093 -0.09816,-0.02222 -0.331523,-0.07329 -0.698765,0.112713 -0.385233,0.194998 -0.519906,0.529696 -0.51726,0.778139 0.0032,0.296598 0.15531,0.386557 0.680773,0.395552 0.700087,0.01164 1.002506,0.3175 1.009914,1.022615 0.0071,0.692415 -0.362479,1.435894 -0.927893,1.891506 l 0.01244,0.646113 c 7.94e-4,0.07779 -0.04974,0.166952 -0.11086,0.197908 l -0.382588,0.220398 c -0.06138,0.03096 -0.111654,-0.0071 -0.112448,-0.08493 l -0.0066,-0.635529 c -0.327819,0.13626 -0.659871,0.169068 -0.872067,0.08387 -0.03995,-0.01561 -0.05715,-0.07461 -0.04127,-0.141817 l 0.138642,-0.5842 c 0.01111,-0.04604 0.03545,-0.09208 0.06853,-0.121444 0.01164,-0.01138 0.02381,-0.02011 0.03598,-0.02619 0.02196,-0.01111 0.04339,-0.01349 0.06165,-0.0066 0.2286,0.07699 0.520965,0.04101 0.802217,-0.101336 0.357187,-0.18071 0.596106,-0.545041 0.592402,-0.906991 -0.0034,-0.328348 -0.18124,-0.464873 -0.613569,-0.468048 -0.550333,0.0016 -1.06336,-0.106892 -1.071827,-0.917046 -0.0069,-0.667015 0.339989,-1.361017 0.889,-1.79996 l -0.0069,-0.652198 c -7.94e-4,-0.08017 0.04815,-0.168275 0.111125,-0.200025 z"
         id="Fill-8"
         fill="#fefefe"
         style="fill-rule:evenodd;stroke:none;stroke-width:0.264583" />
    </g>
  </g>
</svg>
