<?xml version="1.0" encoding="UTF-8"?>
<svg id="Calque_2" xmlns="http://www.w3.org/2000/svg" viewBox="0 0 164 164">
  <defs>
    <style>
      .cls-1 {
        fill: #fff;
      }
    </style>
  </defs>
  <g id="Calque_1-2" data-name="Calque_1">
    <g>
      <path class="cls-1" d="M112.52,75.67v27.24h-61.04v-27.24c0-5.09,1.64-9.31,4.98-12.59,8.38-8.32,24.31-8.32,25.48-8.32h.59c2.81.06,17.22.59,25.01,8.32,3.28,3.28,4.98,7.5,4.98,12.59Z"/>
      <path class="cls-1" d="M164,82c0,13.94-3.49,27.07-9.63,38.56-3.11-6.3-8.27-11.43-14.6-14.51l.04-30.32c0-.7.29-17.8-12.83-31.28-10.07-10.36-25.18-15.63-44.92-15.63h-.06c-19.74,0-34.85,5.27-44.92,15.63-13.18,13.48-12.83,30.58-12.83,31.22v30.68c-6.26,3.2-11.33,8.42-14.32,14.8C3.6,109.52,0,96.18,0,82,0,36.71,36.71,0,82,0s82,36.71,82,82Z"/>
      <path class="cls-1" d="M135.53,75.67v28.7c-2.02-.64-4.14-1.08-6.32-1.3-1.04-.11-2.1-.16-3.16-.16h-9.26v-27.18c0-6.21-2.11-11.48-6.27-15.58-9.6-9.49-27.29-9.49-28.46-9.49h-.12c-1.4-.06-18.92.06-28.46,9.49-4.16,4.1-6.27,9.31-6.27,15.58v27.18h-8.79v-27.3c0-25.59,23.84-38.54,24.58-38.94-33.42,7.09-33.01,38.94-33.01,38.94v28.49c-.51.14-1.02.3-1.52.47v-28.96c0-.17-.24-16.1,11.65-28.29,9.26-9.54,23.37-14.35,41.82-14.35h.06c18.51,0,32.62,4.87,41.88,14.35,11.89,12.19,11.65,28.12,11.65,28.35Z"/>
      <path class="cls-1" d="M151.75,125.12c-14.46,23.33-40.28,38.88-69.75,38.88-23.01,0-43.8-9.49-58.69-24.76v-9.68c.06-.41.29-3.22,1.76-6.15,2.05-4.04,5.33-6.33,9.9-6.85h84.52v-4.87H34.56c-2.65.29-4.88,1.04-6.78,2.08-1.16.63-2.19,1.37-3.1,2.19-4.41,3.98-6.04,9.76-6.23,13.36v4.49c-2.1-2.57-4.04-5.28-5.81-8.1,2.06-6.09,6.22-11.23,11.61-14.54.66-.41,1.35-.79,2.05-1.14.7-.35,1.43-.68,2.17-.97.5-.2,1-.39,1.52-.56,2.66-.87,5.49-1.36,8.43-1.37h87.63c1.07,0,2.12.06,3.16.18,2.2.26,4.32.77,6.32,1.51.7.26,1.38.55,2.05.87.75.34,1.47.72,2.18,1.14,5.49,3.19,9.78,8.25,11.99,14.29Z"/>
    </g>
  </g>
</svg>