<?xml version="1.0" ?><svg enable-background="new 0 0 400 400" id="Layer_1" version="1.1" viewBox="0 0 400 400" xml:space="preserve" xmlns="http://www.w3.org/2000/svg" xmlns:xlink="http://www.w3.org/1999/xlink"><g><path d="M282.629,55.907c6.03-5.021,14.923-4.437,20.245,1.326l0.192,0.221l40.413,49.245   c1.752,2.135,1.441,5.285-0.693,7.037c-2.134,1.751-5.287,1.441-7.037-0.693l-40.304-49.111c-1.717-1.769-4.512-1.926-6.418-0.339   c-1.936,1.611-2.269,4.453-0.758,6.469l0.251,0.367l15.356,24.817c5.496,8.41,6.188,17.934,6.116,26.974l-0.124,15.369   c-0.057,7.113,3.262,13.966,8.877,18.331l12.093,9.401c2.18,1.695,2.573,4.836,0.878,7.016c-0.985,1.268-2.461,1.931-3.951,1.931   c-1.072,0-2.152-0.343-3.065-1.053l-10.299-8.007v30.337c1.816,0.701,3.688,1.254,5.588,1.64   c9.734,1.975,19.941-0.498,27.999-6.785c8.055-6.285,12.933-15.577,13.382-25.493c0.165-3.64-0.378-7.487-0.953-11.561   c-0.226-1.6-0.449-3.192-0.631-4.766l-2.541-22.109c-0.164-1.435-0.303-2.885-0.442-4.339c-0.327-3.436-0.638-6.681-1.294-9.776   c-1.152-5.434-4.359-9.8-7.653-13.708l-25.731-30.54c-2.641-3.133-6.9-8.099-12.316-14.36c-3.147-3.637-7.712-5.727-12.522-5.733   l-41.676-0.036c-5.124,0.639-5.172,5.882-5.16,6.486c0.019,0.948,0.356,5.688,5.213,5.969c0.7,0.041,1.356,0.225,1.945,0.52h21.133   C279.629,59.063,280.922,57.329,282.629,55.907z" fill="none"/><path d="M289.041,153.905c-2.481,0-4.5,2.019-4.5,4.5s2.019,4.5,4.5,4.5s4.5-2.019,4.5-4.5   S291.522,153.905,289.041,153.905z" fill="none"/><path d="M140.609,288.528c-2.638-2.141-3.587-5.687-2.382-8.854l27.876-79.13c0.655-1.861,0.547-3.867-0.306-5.646   s-2.347-3.121-4.208-3.777c-2.619-0.923-5.504-0.311-7.528,1.595c-0.86,0.81-1.498,1.792-1.895,2.918l-17.55,49.82   c-0.521,1.541-1.584,2.771-2.999,3.47c-1.393,0.688-3.037,0.786-4.511,0.266c-1.482-0.521-2.714-1.638-3.375-3.063   c-0.659-1.424-0.72-3.028-0.171-4.527l0.53-1.506c0.655-1.861,0.547-3.867-0.306-5.646c-0.852-1.78-2.347-3.121-4.207-3.777   c-2.62-0.923-5.503-0.313-7.529,1.594c-0.859,0.81-1.497,1.792-1.895,2.921l-0.426,1.208c-1.035,2.937-4.112,4.683-7.164,4.062   c-3.047-0.617-5.203-3.426-5.011-6.532c0.07-1.083-0.104-2.072-0.515-2.956c-1.409-3.029-6.135-4.701-9.544-3.374   c-0.942,0.367-1.817,0.936-2.531,1.644c-0.514,0.509-0.842,1.138-1.426,2.297c-2.336,4.645-5.846,4.977-7.72,4.761   c-4.576-0.526-5.9-4.638-6.336-5.989c-0.062-0.191-0.114-0.382-0.188-0.552c-0.28-0.563-0.624-1.097-1.004-1.554   c-0.848-1.021-1.958-1.792-3.215-2.235c-0.804-0.283-1.635-0.424-2.462-0.424c-1.09,0-2.174,0.244-3.185,0.729   c-1.779,0.852-3.12,2.347-3.776,4.208l-14.077,39.96c-1.862,5.567-5.547,20.449,1.007,36.75   c1.523,3.785,7.568,16.804,21.411,25.371c12.014,7.434,26.222,9.804,40.005,6.67c4.823-1.088,9.463-2.843,13.796-5.217l0.099-0.053   c0.193-0.1,0.38-0.207,0.567-0.313l0.269-0.152c3.175-1.817,6.227-4.021,9.034-6.529l0.302-0.249   c1.385-1.055,29.104-22.586,29.383-22.804l24.298-18.515c3.03-2.652,3.387-7.267,0.778-10.341   c-2.637-3.109-7.304-3.498-10.407-0.867l-0.47,0.353l-21.779,14.439C146.999,290.878,143.278,290.697,140.609,288.528z" fill="none"/><path d="M299.869,137.508l0.124-15.369c0.06-7.485-0.445-15.267-4.514-21.463l-0.072-0.113l-15.285-24.702   c-1.101-1.521-1.865-3.187-2.315-4.908H58.441v145.098c3.27-0.817,6.707-0.666,9.958,0.479c2.963,1.043,5.585,2.868,7.585,5.277   c0.354,0.426,0.691,0.875,1.01,1.345c0.28-0.339,0.587-0.679,0.929-1.017c1.678-1.665,3.732-3,5.943-3.862   c7.755-3.02,17.036,0.059,21.292,6.743c0.013-0.011,0.024-0.023,0.037-0.034c4.76-4.481,11.543-5.916,17.706-3.746   c3.077,1.084,5.728,2.964,7.729,5.438l12.105-34.364c0.918-2.609,2.465-4.988,4.472-6.877c4.761-4.481,11.545-5.916,17.705-3.746   c4.381,1.543,7.898,4.7,9.905,8.889c2.006,4.188,2.261,8.908,0.718,13.289l-14.791,41.987h143.656v-91.458   C301.443,149.318,299.821,143.48,299.869,137.508z M158.498,170.451c-14.888,0-27,12.112-27,27c0,1.766,0.171,3.529,0.508,5.242   c0.267,1.354-0.616,2.669-1.971,2.936c-1.354,0.264-2.669-0.616-2.936-1.971c-0.399-2.029-0.602-4.118-0.602-6.207   c0-17.645,14.355-32,32-32s32,14.355,32,32c0,7.891-2.897,15.472-8.159,21.345c-0.494,0.551-1.177,0.832-1.863,0.832   c-0.594,0-1.189-0.21-1.667-0.638c-1.028-0.921-1.115-2.502-0.194-3.53c4.439-4.956,6.884-11.351,6.884-18.009   C185.498,182.563,173.385,170.451,158.498,170.451z M273.964,232.448c0,1.381-1.119,2.5-2.5,2.5h-93.011   c-1.381,0-2.5-1.119-2.5-2.5s1.119-2.5,2.5-2.5h90.511V86.862H75.033v117.994c0,1.381-1.119,2.5-2.5,2.5s-2.5-1.119-2.5-2.5V84.362   c0-1.381,1.119-2.5,2.5-2.5h198.931c1.381,0,2.5,1.119,2.5,2.5V232.448z M289.041,167.905c-5.238,0-9.5-4.262-9.5-9.5   s4.262-9.5,9.5-9.5s9.5,4.262,9.5,9.5S294.279,167.905,289.041,167.905z" fill="none"/><path d="M354.139,198.284c-8.013,6.252-17.705,9.567-27.514,9.567c-2.879,0-5.767-0.286-8.627-0.866   c-1.211-0.246-2.409-0.558-3.598-0.905v3.811c5.275,2.07,11.364,2.884,17.652,2.332c10.804-0.944,20.285-6.15,26.697-14.658   c2.419-3.21,4.301-6.757,5.637-10.5C361.669,191.286,358.228,195.093,354.139,198.284z" fill="none"/><path d="M371.259,166.732c0.035-0.457,0.08-0.913,0.101-1.373c0.207-4.569-0.428-9.064-1.041-13.412   c-0.214-1.515-0.427-3.021-0.598-4.51l-2.541-22.109c-0.158-1.372-0.29-2.758-0.423-4.149c-0.34-3.563-0.691-7.247-1.466-10.9   c-1.614-7.609-5.854-13.409-9.79-18.078l-25.731-30.54c-2.706-3.211-6.878-8.076-12.4-14.459c-5.046-5.83-12.361-9.18-20.071-9.19   l-41.962-0.036l-0.484,0.023c-9.65,0.939-14.55,9.091-14.401,16.658c0.044,2.276,0.488,4.392,1.257,6.294H53.441   c-2.76,0-5,2.24-5,5v156.923c-0.92,1.302-1.674,2.732-2.218,4.277L32.12,267.187c-1.322,3.951-3.385,11.725-3.25,21.419   c-3.302,24.754,6.826,49.171,26.131,62.617c12.419,8.65,25.677,10.8,35.788,10.8c6.912,0,12.355-1.005,15.052-1.626   c1.345-0.31,2.185-1.652,1.875-2.997s-1.646-2.186-2.998-1.875c-6.131,1.413-27.64,4.983-46.859-8.404   c-10.408-7.249-17.91-17.99-21.734-30.245c3.758,6.961,10.734,16.836,22.608,24.184c10.154,6.283,21.628,9.518,33.299,9.518   c4.718,0,9.469-0.529,14.177-1.599c5.708-1.288,11.207-3.365,16.345-6.174c0.285-0.149,0.563-0.305,0.84-0.463l0.268-0.151   c3.762-2.153,7.335-4.725,10.623-7.645c2.626-2.02,28.184-21.873,29.263-22.711l24.379-18.577l0.205-0.165   c7.314-6.207,8.22-17.202,2.021-24.509c-6.129-7.231-16.945-8.202-24.254-2.232l-16.146,10.705l7.47-21.204h152.179   c2.76,0,5-2.24,5-5v-35.642c4.295,1.437,8.98,2.18,13.829,2.18c1.408,0,2.83-0.062,4.259-0.187   c12.234-1.07,22.979-6.976,30.255-16.63C369.971,190.984,373.02,178.76,371.259,166.732z M255.662,60.433   c-4.856-0.281-5.194-5.021-5.213-5.969c-0.012-0.604,0.036-5.847,5.16-6.486l41.676,0.036c4.811,0.006,9.375,2.096,12.522,5.733   c5.416,6.261,9.676,11.227,12.316,14.36l25.731,30.54c3.294,3.909,6.501,8.275,7.653,13.708c0.656,3.096,0.967,6.341,1.294,9.776   c0.14,1.455,0.278,2.905,0.442,4.339l2.541,22.109c0.182,1.574,0.405,3.166,0.631,4.766c0.575,4.074,1.118,7.921,0.953,11.561   c-0.449,9.916-5.327,19.208-13.382,25.493c-8.058,6.287-18.265,8.76-27.999,6.785c-1.9-0.386-3.772-0.939-5.588-1.64v-30.337   l10.299,8.007c0.913,0.709,1.993,1.053,3.065,1.053c1.49,0,2.966-0.664,3.951-1.931c1.695-2.18,1.302-5.321-0.878-7.016   l-12.093-9.401c-5.615-4.365-8.934-11.218-8.877-18.331l0.124-15.369c0.072-9.04-0.62-18.563-6.116-26.974L288.52,70.429   l-0.251-0.367c-1.511-2.016-1.178-4.858,0.758-6.469c1.906-1.587,4.701-1.43,6.418,0.339l40.304,49.111   c1.75,2.135,4.903,2.444,7.037,0.693c2.135-1.752,2.445-4.902,0.693-7.037l-40.413-49.245l-0.192-0.221   c-5.322-5.763-14.215-6.347-20.245-1.326c-1.707,1.421-3,3.155-3.889,5.046h-21.133C257.018,60.658,256.361,60.473,255.662,60.433z    M149.869,288.978l21.779-14.439l0.47-0.353c3.104-2.63,7.771-2.242,10.407,0.867c2.608,3.075,2.252,7.689-0.778,10.341   l-24.298,18.515c-0.279,0.217-27.998,21.749-29.383,22.804l-0.302,0.249c-2.808,2.508-5.859,4.712-9.034,6.529l-0.269,0.152   c-0.188,0.106-0.374,0.213-0.567,0.313l-0.099,0.053c-4.333,2.374-8.973,4.129-13.796,5.217   c-13.783,3.134-27.991,0.764-40.005-6.67c-13.843-8.566-19.888-21.585-21.411-25.371c-6.554-16.301-2.869-31.183-1.007-36.75   l14.077-39.96c0.656-1.862,1.997-3.356,3.776-4.208c1.011-0.484,2.095-0.729,3.185-0.729c0.827,0,1.658,0.141,2.462,0.424   c1.257,0.443,2.367,1.215,3.215,2.235c0.38,0.457,0.724,0.992,1.004,1.554c0.073,0.17,0.126,0.361,0.188,0.552   c0.436,1.351,1.76,5.463,6.336,5.989c1.874,0.216,5.384-0.116,7.72-4.761c0.584-1.159,0.912-1.788,1.426-2.297   c0.714-0.708,1.589-1.276,2.531-1.644c3.409-1.328,8.135,0.344,9.544,3.374c0.411,0.884,0.585,1.873,0.515,2.956   c-0.192,3.106,1.964,5.915,5.011,6.532c3.052,0.621,6.129-1.125,7.164-4.062l0.426-1.208c0.397-1.128,1.035-2.111,1.895-2.921   c2.026-1.907,4.909-2.517,7.529-1.594c1.86,0.656,3.355,1.997,4.207,3.777c0.853,1.78,0.961,3.785,0.306,5.646l-0.53,1.506   c-0.549,1.5-0.488,3.104,0.171,4.527c0.661,1.425,1.893,2.542,3.375,3.063c1.474,0.521,3.118,0.422,4.511-0.266   c1.415-0.699,2.478-1.93,2.999-3.47l17.55-49.82c0.396-1.126,1.034-2.108,1.895-2.918c2.024-1.906,4.909-2.518,7.528-1.595   c1.861,0.656,3.355,1.997,4.208,3.777s0.961,3.785,0.306,5.646l-27.876,79.13c-1.205,3.168-0.256,6.713,2.382,8.854   C143.278,290.697,146.999,290.878,149.869,288.978z M160.744,245.853l14.791-41.987c1.543-4.381,1.288-9.101-0.718-13.289   c-2.007-4.189-5.524-7.345-9.905-8.889c-6.16-2.17-12.944-0.735-17.705,3.746c-2.007,1.89-3.554,4.268-4.472,6.877l-12.105,34.364   c-2.001-2.475-4.651-4.354-7.729-5.438c-6.163-2.17-12.946-0.735-17.706,3.746c-0.013,0.011-0.024,0.023-0.037,0.034   c-4.256-6.684-13.537-9.763-21.292-6.743c-2.211,0.861-4.266,2.197-5.943,3.862c-0.342,0.338-0.648,0.678-0.929,1.017   c-0.318-0.47-0.655-0.918-1.01-1.345c-2-2.409-4.622-4.234-7.585-5.277c-3.251-1.146-6.689-1.296-9.958-0.479V70.953h219.366   c0.45,1.721,1.214,3.387,2.315,4.908l15.285,24.702l0.072,0.113c4.068,6.196,4.573,13.978,4.514,21.463l-0.124,15.369   c-0.047,5.972,1.574,11.81,4.532,16.886v91.458H160.744z M332.052,212.223c-6.288,0.552-12.377-0.263-17.652-2.332v-3.811   c1.189,0.347,2.387,0.659,3.598,0.905c2.86,0.581,5.748,0.866,8.627,0.866c9.809,0,19.501-3.315,27.514-9.567   c4.089-3.191,7.53-6.998,10.248-11.219c-1.336,3.743-3.218,7.29-5.637,10.5C352.338,206.073,342.856,211.278,332.052,212.223z" fill="#333333"/><path d="M289.041,148.905c-5.238,0-9.5,4.262-9.5,9.5s4.262,9.5,9.5,9.5s9.5-4.262,9.5-9.5   S294.279,148.905,289.041,148.905z M289.041,162.905c-2.481,0-4.5-2.019-4.5-4.5s2.019-4.5,4.5-4.5s4.5,2.019,4.5,4.5   S291.522,162.905,289.041,162.905z" fill="#333333"/><path d="M271.464,81.862H72.533c-1.381,0-2.5,1.119-2.5,2.5v120.494c0,1.381,1.119,2.5,2.5,2.5s2.5-1.119,2.5-2.5   V86.862h193.931v143.086h-90.511c-1.381,0-2.5,1.119-2.5,2.5s1.119,2.5,2.5,2.5h93.011c1.381,0,2.5-1.119,2.5-2.5V84.362   C273.964,82.981,272.844,81.862,271.464,81.862z" fill="#333333"/><path d="M185.498,197.451c0,6.658-2.444,13.054-6.884,18.009c-0.921,1.028-0.834,2.609,0.194,3.53   c0.478,0.427,1.073,0.638,1.667,0.638c0.687,0,1.369-0.281,1.863-0.832c5.262-5.874,8.159-13.454,8.159-21.345   c0-17.645-14.355-32-32-32s-32,14.355-32,32c0,2.089,0.202,4.177,0.602,6.207c0.267,1.355,1.582,2.234,2.936,1.971   c1.354-0.267,2.237-1.581,1.971-2.936c-0.337-1.712-0.508-3.476-0.508-5.242c0-14.888,12.112-27,27-27   S185.498,182.563,185.498,197.451z" fill="#333333"/></g></svg>