<?xml version="1.0" encoding="UTF-8"?>
<svg id="Calque_2" xmlns="http://www.w3.org/2000/svg" viewBox="0 0 46.64 43.29">
  <defs>
    <style>
      .cls-1 {
        fill: #fff;
      }
    </style>
  </defs>
  <g id="Calque_1-2" data-name="Calque_1">
    <g>
      <path class="cls-1" d="M46.64,17.16c-.67,1.02-1.44,1.41-2.36,1.19-.84-.2-1.43-1.38-1.08-2.15.1-.23.27-.3.51-.21.82.3,1.65.49,2.53.44.18,0,.27.11.4.19v.55ZM45.03,17.25c0-.21-.11-.34-.3-.34-.19,0-.32.12-.33.31,0,.18.1.32.31.32.2,0,.31-.1.32-.29Z"/>
      <path class="cls-1" d="M23.63,18.18c-.72.88-1.42,1.72-2.11,2.57-.18.22-.38.39-.64.5-1.89.81-3.79,1.63-5.68,2.44-.58.25-1.1.12-1.43-.31-.32-.42-.31-.97.03-1.39.17-.21.41-.31.64-.41,1.6-.69,3.2-1.38,4.81-2.05.42-.18.75-.43,1.03-.78,1.08-1.34,2.18-2.65,3.26-3.99.33-.41.74-.58,1.26-.6,1.64-.07,3.28-.17,4.92-.26.14,0,.26-.06.39-.12,1.39-.69,2.77-1.38,4.16-2.06.22-.11.34-.23.37-.5.19-2.07.41-4.14.61-6.21.08-.8.59-1.32,1.27-1.24.69.09,1.06.69.97,1.49-.22,2.02-.41,4.05-.61,6.07-.03.35-.06.7-.1,1.04-.06.46-.33.76-.74.96-1.51.74-3.02,1.5-4.53,2.23-.29.14-.4.3-.38.62.07,1,.1,2,.16,3,.02.27-.02.44-.29.58-2.11,1.14-4.33,1.95-6.66,2.5-.36.09-.48,0-.49-.36-.02-.96-.07-1.91-.11-2.87-.01-.27.02-.54-.11-.86Z"/>
      <path class="cls-1" d="M25.61,28.68c-.89.71-1.71,1.39-2.55,2.03-.26.2-.36.42-.4.72-.28,2.46-.56,4.91-.85,7.37-.1.89-.61,1.54-1.34,1.71-.76.17-1.53-.15-1.93-.8-.3-.49-.25-1.01-.18-1.54.34-2.77.66-5.54.99-8.31.05-.46.27-.84.62-1.12.77-.62,1.54-1.23,2.31-1.85.13-.1.23-.17.39-.03.85.77,1.83,1.34,2.94,1.84Z"/>
      <path class="cls-1" d="M32.89,25.64c.28-1.09.56-2.1.63-3.14.04-.68.33-1.03.96-1.21.5-.15.95-.47,1.52-.33.59.14,1.02.47,1.24,1.03,1.16,3,2.32,5.99,3.47,8.99.35.91-.07,1.84-.94,2.18-.87.34-1.8-.05-2.16-.97-.91-2.3-1.79-4.6-2.67-6.91-.13-.36-.26-.46-.62-.27-.43.23-.9.4-1.43.63Z"/>
      <path class="cls-1" d="M31.4,21.46v1.07c.18.09.29-.06.47-.03-.22,1.36-.44,2.72-1.1,3.96-.34.63-1.87.86-2.53.39-.29-.21-.4-.16-.57.11-.26.4-.58.57-1.1.35-.88-.38-1.73-.81-2.48-1.41-.14-.11-.23-.16-.12-.42.15-.33.05-.75.01-1.12-.03-.24.04-.36.28-.41,2.43-.47,4.72-1.32,6.93-2.42.04-.02.08-.02.21-.06Z"/>
      <path class="cls-1" d="M22.63,9.42c0-2.84,2.68-4.61,5.07-3.53.55.25,1.05.6,1.64.76.1.03.22.07.23.19,0,.13-.12.15-.21.2-.82.43-1.52.99-2.05,1.76-.5.73-1.06,1.41-1.71,2.01-.33.3-.68.56-1.1.71-.56.19-1.02.05-1.35-.45-.37-.56-.51-1.19-.51-1.64ZM27.2,6.55c-.19.01-.4.02-.37.28.03.35.32.41.59.45.18.02.41-.05.38-.28-.04-.32-.31-.42-.6-.44Z"/>
      <path class="cls-1" d="M11.28,0c.28-.05.24.19.27.33.61,2.16,1.4,4.26,2.32,6.31,1.74,3.87,3.92,7.46,6.64,10.73.23.28.18.53-.13.73-.19.13-.23-.06-.31-.15-.94-1.1-1.8-2.25-2.62-3.44-2.91-4.27-5.09-8.88-6.56-13.84-.16-.53-.07-.67.38-.67Z"/>
      <path class="cls-1" d="M15.32,20.83c-.5.37-.92.36-1.45.08C9.11,18.41,4.6,15.52.19,12.47c-.23-.16-.24-.26-.09-.49.17-.26.29-.26.52-.09,3.16,2.22,6.39,4.32,9.73,6.25,1.46.84,2.93,1.66,4.44,2.41.16.08.32.17.52.28Z"/>
      <path class="cls-1" d="M6.24,10.19c.04-.53.18-1.02.5-1.44.34-.44.58-.47,1.03-.14.28.2.56.42.86.59.46.27.94.48,1.49.48.29,0,.42.13.33.43-.25.83-1.7,1.99-2.57,2.04-.35.02-.65-.1-.92-.32-.51-.43-.69-1.01-.74-1.65ZM8.01,10.2c-.19.02-.32.11-.32.3,0,.21.14.34.34.33.18-.01.3-.13.29-.33,0-.2-.13-.29-.32-.3Z"/>
      <path class="cls-1" d="M30.16,9.98c-.01.74-.32,1.51-.96,2.13-.1.1-.18.25-.38.13-.8-.46-1.46-1.04-1.78-1.93-.09-.26-.06-.47.12-.71.52-.68,1.01-1.36,1.73-1.86.27-.18.4-.16.58.09.44.59.68,1.25.68,2.14Z"/>
      <path class="cls-1" d="M16.61,4.29c-.98-.01-2-1.03-2.02-2.01,0-.35.13-.53.51-.54,1.09-.02,2.14-.2,3.14-.67.36-.17.62-.03.75.35.12.35.07.69-.02,1.03-.3,1.04-1.33,1.85-2.35,1.84ZM17.28,2.74c0-.26-.15-.4-.39-.4-.26,0-.44.15-.43.42,0,.27.19.42.45.41.23-.01.39-.16.38-.42Z"/>
      <path class="cls-1" d="M13.54,26.29c-.46,0-.8-.25-1.08-.59-.66-.82-.59-2.16.13-2.94.14-.16.3-.26.52-.22.22.05.11.25.14.38.16.88,1.05,1.39,1.9,1.09.25-.09.49-.24.78-.2.26.03.35.15.29.39-.19.85-1.79,2.09-2.69,2.08ZM13.78,24.32c-.2.02-.33.12-.33.31,0,.21.13.34.34.33.18,0,.3-.12.3-.32,0-.2-.13-.29-.31-.31Z"/>
      <path class="cls-1" d="M9.78,36.3c-.97-.09-1.93-.32-2.72-1.02-.21-.18-.26-.33-.03-.55.59-.6,1.17-1.19,2.05-1.35.65-.12,1.12.2,1.52.64.38.42.44.91.23,1.44-.27.69-.44.84-1.05.84ZM9.6,34.77c-.04-.18-.14-.3-.34-.29-.2,0-.31.11-.31.31,0,.22.14.34.34.32.18-.01.28-.15.3-.34Z"/>
      <path class="cls-1" d="M29.01,33.95c-.09-.33.08-.56.4-.73.89-.48,1.84-.69,2.85-.54.51.08.55.14.42.65-.13.52-.3,1.01-.6,1.46-.5.77-1.13,1.01-1.99.78-.72-.19-1.02-.64-1.08-1.63ZM31.04,34.32c.02-.3-.11-.41-.28-.43-.21-.02-.34.11-.35.32,0,.19.12.3.32.3.2,0,.31-.09.32-.2Z"/>
      <path class="cls-1" d="M19.57,43.29c-.89.01-1.72-1.17-1.42-2.02.09-.25.23-.31.49-.26.91.18,1.81.33,2.75.15.44-.08.57.12.41.55-.29.78-1.39,1.57-2.23,1.58ZM20.05,42.25c-.03-.21-.15-.32-.35-.31-.2.01-.31.14-.29.34.01.19.15.31.34.29.19-.01.29-.15.3-.32Z"/>
      <path class="cls-1" d="M39.73,35.95c-.86,0-1.7-.79-1.73-1.56-.01-.26.09-.43.39-.44.85-.03,1.68-.17,2.47-.52.4-.18.71.15.66.68-.07.69-.41,1.22-1.02,1.57-.26.15-.55.26-.76.27ZM39.78,34.4c-.2.02-.31.15-.31.33,0,.2.13.34.35.31.2-.02.29-.16.28-.34-.01-.19-.13-.29-.32-.3Z"/>
      <path class="cls-1" d="M28.56,12.57c-1.17.76-2.92.55-3.84-.44-.07-.08-.27-.17,0-.28.76-.32,1.31-.91,1.89-1.52.19.5.42.93.76,1.3.34.37.75.65,1.19.95Z"/>
      <path class="cls-1" d="M17.98,22.86c.47-.28.87-.47,1.41-.22,1.25.57,2.57,1,3.9,1.37.22.06.43.55.31.73-.08.13-.18.05-.28.02-1.82-.48-3.57-1.14-5.33-1.9Z"/>
      <path class="cls-1" d="M31.32,20.55c-.05.17-.2.2-.31.27-1.39.86-2.91,1.42-4.47,1.88-.75.22-1.52.4-2.29.59-.13.03-.28.16-.35-.1-.07-.25.07-.27.25-.31,1.59-.37,3.17-.82,4.68-1.45.71-.3,1.41-.63,2.06-1.05.08-.05.17-.17.27-.04.06.07.1.15.15.21Z"/>
      <path class="cls-1" d="M32.96,22.21c-.2,1.27-.5,2.52-.83,3.76-.04.16-.1.25-.28.19-.2-.06-.18-.2-.14-.36.25-.9.47-1.81.65-2.73.06-.3.1-.6.16-.89.03-.14.03-.31.26-.29.25.02.2.17.19.32Z"/>
      <path class="cls-1" d="M23.33,26.1c.06.04.13.09.21.14.85.61,1.74,1.15,2.73,1.52.15.05.32.08.23.34-.11.29-.27.12-.39.07-1.01-.41-1.96-.94-2.84-1.6-.08-.06-.26-.09-.17-.26.05-.09.1-.19.24-.21Z"/>
      <path class="cls-1" d="M37.65,6.53c.05-.46.1-.92.14-1.39.02-.24.02-.48-.06-.72-.04-.11-.23-.28,0-.38.19-.08.39-.08.55.08.17.19.24.42.23.67,0,.7-.29,1.27-.87,1.73Z"/>
      <path class="cls-1" d="M34.77,6.69c-.44-.47-.7-.92-.72-1.49,0-.18.05-.36.22-.41.2-.05.42-.03.62-.02.02,0,.06.13.05.2-.05.55-.11,1.09-.18,1.72Z"/>
      <path class="cls-1" d="M23.42,21.46c-.38-.36-.71-.67-1.03-.99-.26-.26.07-.36.16-.52.11-.21.21-.1.35,0,.49.35.62.83.52,1.5Z"/>
    </g>
  </g>
</svg>