<?xml version="1.0" encoding="UTF-8"?>
<svg id="Calque_2" xmlns="http://www.w3.org/2000/svg" viewBox="0 0 32.51 25.63">
  <defs>
    <style>
      .cls-1 {
        fill: #fff;
      }
    </style>
  </defs>
  <g id="Calque_1-2" data-name="Calque_1">
    <path class="cls-1" d="M32.4,23.97c-.14-.24-.57-.31-1.31-.22-1.36.18-2.35-.27-2.97-1.34-.47-.81-.59-1.62-.36-2.44s.89-1.98,2-3.49l.69-.97c2.06-2.84,2.48-5.32,1.27-7.42-1.24-2.14-4.81-1.96-7.37-.86C22.27,2.96,17.89,0,12.82,0,5.74,0,0,5.74,0,12.82s5.74,12.82,12.82,12.82,12.82-5.74,12.82-12.82c0-1.57-.3-3.07-.81-4.45.87-.31,1.9-.54,2.88-.57,1.28-.05,2.45.22,2.91,1.02,1.03,1.78.53,3.89-1.49,6.32l-.41.5c-2.36,2.84-2.93,5.32-1.7,7.46.5.86,1.29,1.47,2.38,1.84,1.09.37,2.01.33,2.76-.1.37-.22.46-.5.26-.85h0ZM6.94,15.55c-1.47,0-2.67-1.2-2.67-2.67s1.2-2.67,2.67-2.67,2.67,1.2,2.67,2.67-1.2,2.67-2.67,2.67ZM12.82,21.43c-1.47,0-2.67-1.2-2.67-2.67s1.2-2.67,2.67-2.67,2.67,1.2,2.67,2.67-1.2,2.67-2.67,2.67ZM11.77,12.88c0-.59.48-1.07,1.07-1.07s1.07.48,1.07,1.07-.48,1.07-1.07,1.07-1.07-.48-1.07-1.07ZM12.82,9.68c-1.47,0-2.67-1.2-2.67-2.67s1.2-2.67,2.67-2.67,2.67,1.2,2.67,2.67-1.2,2.67-2.67,2.67ZM18.69,15.55c-1.47,0-2.67-1.2-2.67-2.67s1.2-2.67,2.67-2.67,2.67,1.2,2.67,2.67-1.2,2.67-2.67,2.67Z"/>
  </g>
</svg>