<?xml version="1.0" encoding="UTF-8"?>
<svg id="Calque_2" xmlns="http://www.w3.org/2000/svg" viewBox="0 0 37.38 23.93">
  <defs>
    <style>
      .cls-1 {
        fill: #fff;
      }
    </style>
  </defs>
  <g id="Calque_1-2" data-name="Calque_1">
    <g id="layer1">
      <g id="layer1-7">
        <path id="path2996" class="cls-1" d="M7.92,0c-.07,0-.14,0-.21,0-.56.01-1.12.11-1.65.23-.5.11-1.03.3-1.37.68-.53.6-.8,2.25-.8,2.25,0,0-1.55,1.04-2.09,1.77-.51.69-.78,1.54-1.01,2.37-.15.55-.19,1.12-.24,1.69-.34,3.74-.73,7.15-.44,11.27.1,1.47.74,2.19,1.61,2.86.8.62,1.94.91,2.94.76.79-.11,1.49-.66,2.04-1.22,1.16-1.18,2.26-4.09,2.5-4.29.24-.2.56-.68.56-.68,0,0,.77.7,1.25.88.67.26,1.42.38,2.13.28.92-.12,1.87-.48,2.57-1.09.5-.43,1.05-1.69,1.05-1.69h3.86s.54,1.26,1.05,1.69c.71.61,1.65.96,2.57,1.09.71.1,1.46-.02,2.13-.28.47-.19,1.25-.88,1.25-.88,0,0,.32.48.56.68.24.2,1.33,3.12,2.5,4.29.56.56,1.26,1.11,2.05,1.22,1,.14,2.14-.15,2.94-.76.87-.67,1.51-1.39,1.61-2.86.29-4.12-.1-7.52-.44-11.27-.05-.57-.09-1.14-.24-1.69-.23-.83-.5-1.68-1-2.37-.54-.74-2.09-1.77-2.09-1.77,0,0-.28-1.66-.81-2.25-.34-.38-.87-.57-1.36-.68-1.06-.24-2.27-.4-3.26.04-.57.25-.96.88-1.28,1.37-.32.48-.48,2.01-.48,2.01l-5.59-.02v-.02h-2.01s-2.01,0-2.01,0v.02l-5.59.02s-.16-1.53-.48-2.01c-.32-.48-.71-1.12-1.28-1.37C8.88.09,8.41,0,7.92,0h0ZM30.62,4.02c.76,0,1.37.61,1.37,1.37s-.61,1.37-1.37,1.37-1.37-.61-1.37-1.37.61-1.37,1.37-1.37ZM5.61,4.79h2.2v1.64s-.8,1.05-1.1,1.04c-.32-.01-1.1-1.04-1.1-1.04v-1.64ZM27.3,6.93c.76,0,1.37.61,1.37,1.37s-.61,1.37-1.37,1.37-1.37-.61-1.37-1.37.61-1.37,1.37-1.37ZM33.95,6.93c.76,0,1.37.61,1.37,1.37s-.61,1.37-1.37,1.37-1.37-.61-1.37-1.37.61-1.37,1.37-1.37ZM3.45,7.03h1.64s1.03.78,1.04,1.1c.01.3-1.04,1.1-1.04,1.1h-1.64v-2.21ZM8.33,7.03h1.64v2.21h-1.64s-1.05-.8-1.04-1.1c.01-.32,1.04-1.1,1.04-1.1h0ZM21.29,7.61l2.14.7-2.14.7v-1.41ZM13.79,7.66h2.14v1.31h-2.14v-1.31ZM6.71,8.79c.3-.01,1.1,1.04,1.1,1.04v1.64h-2.2v-1.64s.78-1.03,1.1-1.04h0ZM30.63,9.84c.76,0,1.37.61,1.37,1.37s-.61,1.37-1.37,1.37-1.37-.61-1.37-1.37.61-1.37,1.37-1.37ZM12.57,12.23c1.48,0,2.67,1.2,2.67,2.67s-1.2,2.68-2.67,2.68-2.67-1.2-2.67-2.68,1.2-2.67,2.67-2.67ZM24.65,12.23c1.48,0,2.67,1.2,2.67,2.67s-1.2,2.68-2.67,2.68-2.67-1.2-2.67-2.68,1.2-2.67,2.67-2.67Z"/>
      </g>
    </g>
  </g>
</svg>