<?xml version="1.0" encoding="UTF-8"?>
<svg id="Calque_2" xmlns="http://www.w3.org/2000/svg" viewBox="0 0 270.11 263.84">
  <defs>
    <style>
      .cls-1 {
        fill: #fff;
      }
    </style>
  </defs>
  <g id="Calque_1-2" data-name="Calque_1">
    <g>
      <path class="cls-1" d="M135.23.01c28.62,0,57.24-.02,85.86,0,25.11.02,44.49,16.43,48.57,41.18.4,2.45.42,4.98.42,7.47.02,55.49.04,110.98,0,166.46-.02,27.7-20.93,48.66-48.6,48.68-57.61.04-115.22.04-172.84,0C20.96,263.79.04,242.85.02,215.16c-.03-55.49-.03-110.97,0-166.46C.04,21.01,20.95.07,48.63.02c28.87-.05,57.74-.01,86.61-.01ZM60.97,127.08c0,18.37.08,36.74-.08,55.11-.03,3.38,1.08,4.33,4.29,4.2,5.24-.22,10.5-.18,15.74-.01,2.9.1,3.97-.84,3.92-3.84-.15-9.74-.06-19.49-.05-29.24,0-5.04.06-5.08,4.96-4.85,7,.34,13.97.12,20.92-.91,18.83-2.78,31.17-14.38,34.39-32.45,3.36-18.89-5.62-36.09-22.58-43.25-6.28-2.65-12.85-4.11-19.64-4.25-12.74-.26-25.48-.1-38.23.44-2.99.13-3.73,1.07-3.72,3.94.12,18.37.06,36.74.06,55.11ZM158.3,172.27c0,2.75.06,5.5-.02,8.25-.06,1.9.73,3.09,2.48,3.69,15.84,5.48,31.81,6.88,47.43-.19,9.51-4.3,14.47-12.31,14.85-22.93.36-10.12-4.14-17.45-12.75-22.51-4.86-2.86-9.96-5.16-15.22-7.16-4.08-1.55-8.26-3.02-11.55-6.02-3.57-3.26-2.59-7.82,1.95-9.4,1.28-.45,2.67-.7,4.02-.79,8.73-.54,17.21.64,25.18,4.37,2.89,1.35,3.79.69,3.71-2.39-.12-4.74-.19-9.5.03-14.24.13-2.92-1.03-4.33-3.75-5.03-11.54-2.97-23.21-3.98-34.8-.88-11.53,3.09-19.28,10.34-21.24,22.59-1.73,10.83,3.32,19.87,14.38,26.52,3.87,2.33,7.95,4.16,12.16,5.77,3.61,1.38,7.27,2.7,10.51,4.85,2.15,1.43,3.88,3.21,3.43,6.15-.48,3.13-2.83,4.32-5.46,4.93-3.54.83-7.15,1.06-10.79.66-7.63-.82-15.02-2.49-21.81-6.22-2.22-1.22-2.83-.56-2.76,1.73.08,2.75.02,5.5.02,8.25Z"/>
      <path class="cls-1" d="M84.95,108.16c0-5.12.07-10.23-.04-15.35-.05-2.6.67-3.92,3.59-3.8,6.7.28,13.46-.65,20.05,1.46,8.35,2.67,12.97,8.59,13.09,17.06.13,9.15-4.17,15.37-12.61,18.2-6.99,2.34-14.2,2.37-21.46,2.03-2.26-.1-2.64-1.29-2.63-3.14.04-5.49.01-10.98,0-16.47Z"/>
    </g>
  </g>
</svg>