<?xml version="1.0" encoding="UTF-8" standalone="no"?>
<!-- Uploaded to: SVG Repo, www.svgrepo.com, Generator: SVG Repo Mixer Tools -->

<svg
   width="800px"
   height="800px"
   viewBox="0 0 16 16"
   fill="none"
   version="1.1"
   id="svg826"
   sodipodi:docname="nginx.svg"
   inkscape:version="1.1.2 (b8e25be8, 2022-02-05)"
   xmlns:inkscape="http://www.inkscape.org/namespaces/inkscape"
   xmlns:sodipodi="http://sodipodi.sourceforge.net/DTD/sodipodi-0.dtd"
   xmlns="http://www.w3.org/2000/svg"
   xmlns:svg="http://www.w3.org/2000/svg">
  <defs
     id="defs830" />
  <sodipodi:namedview
     id="namedview828"
     pagecolor="#505050"
     bordercolor="#eeeeee"
     borderopacity="1"
     inkscape:pageshadow="0"
     inkscape:pageopacity="0"
     inkscape:pagecheckerboard="0"
     showgrid="false"
     inkscape:zoom="0.89875"
     inkscape:cx="0"
     inkscape:cy="413.35188"
     inkscape:window-width="1323"
     inkscape:window-height="969"
     inkscape:window-x="0"
     inkscape:window-y="25"
     inkscape:window-maximized="0"
     inkscape:current-layer="svg826" />
  <path
     fill-rule="nonzero"
     clip-rule="nonzero"
     d="M7.62016 0.102166C7.85488 -0.0340553 8.14512 -0.0340553 8.37984 0.102166L14.626 3.72717C14.8576 3.86157 15 4.10825 15 4.375V11.625C15 11.8918 14.8576 12.1384 14.626 12.2728L8.37984 15.8978C8.14512 16.0341 7.85488 16.0341 7.62016 15.8978L1.374 12.2728C1.14241 12.1384 1 11.8918 1 11.625V4.375C1 4.10825 1.14241 3.86157 1.374 3.72717L7.62016 0.102166ZM2.50769 4.80578V11.1942L8 14.3817L13.4923 11.1942V4.80578L8 1.61828L2.50769 4.80578ZM4.98331 4.55709C5.265 4.441 5.58925 4.50517 5.80484 4.71967L10.0462 8.93934V5.25C10.0462 4.83579 10.3837 4.5 10.8 4.5C11.2163 4.5 11.5538 4.83579 11.5538 5.25V10.75C11.5538 11.0533 11.3702 11.3268 11.0885 11.4429C10.8068 11.559 10.4825 11.4948 10.2669 11.2803L6.02564 7.06066V10.75C6.02564 11.1642 5.68813 11.5 5.27179 11.5C4.85546 11.5 4.51795 11.1642 4.51795 10.75V5.25C4.51795 4.94665 4.70162 4.67318 4.98331 4.55709Z"
     fill="#000000"
     id="path824"
     style="fill:#ffffff" />
</svg>
