<?xml version="1.0" encoding="UTF-8" standalone="no"?>
<!-- Uploaded to: SVG Repo, www.svgrepo.com, Generator: SVG Repo Mixer Tools -->

<svg
   width="800px"
   height="800px"
   viewBox="0 0 48 48"
   version="1.1"
   id="svg839"
   sodipodi:docname="accessibility-circle-svgrepo-com.svg"
   inkscape:version="1.1.2 (b8e25be8, 2022-02-05)"
   xmlns:inkscape="http://www.inkscape.org/namespaces/inkscape"
   xmlns:sodipodi="http://sodipodi.sourceforge.net/DTD/sodipodi-0.dtd"
   xmlns="http://www.w3.org/2000/svg"
   xmlns:svg="http://www.w3.org/2000/svg"
   xmlns:rdf="http://www.w3.org/1999/02/22-rdf-syntax-ns#"
   xmlns:cc="http://creativecommons.org/ns#"
   xmlns:dc="http://purl.org/dc/elements/1.1/">
  <defs
     id="defs843" />
  <sodipodi:namedview
     id="namedview841"
     pagecolor="#505050"
     bordercolor="#eeeeee"
     borderopacity="1"
     inkscape:pageshadow="0"
     inkscape:pageopacity="0"
     inkscape:pagecheckerboard="0"
     showgrid="false"
     inkscape:zoom="0.89875"
     inkscape:cx="392.76773"
     inkscape:cy="413.35188"
     inkscape:window-width="1323"
     inkscape:window-height="969"
     inkscape:window-x="0"
     inkscape:window-y="25"
     inkscape:window-maximized="0"
     inkscape:current-layer="Layer_6" />
  <title
     id="title824">accessibility-circle</title>
  <g
     id="Layer_2"
     data-name="Layer 2">
    <g
       id="invisible_box"
       data-name="invisible box">
      <rect
         width="48"
         height="48"
         fill="none"
         id="rect826" />
    </g>
    <g
       id="Layer_6"
       data-name="Layer 6">
      <g
         id="g835"
         style="fill:#ffffff">
        <path
           d="M24,2A22,22,0,1,0,46,24,21.9,21.9,0,0,0,24,2Zm0,40A18,18,0,1,1,42,24,18.1,18.1,0,0,1,24,42Z"
           id="path829"
           style="fill:#ffffff" />
        <circle
           cx="24"
           cy="13"
           r="3"
           id="circle831"
           style="fill:#ffffff" />
        <path
           d="M35,17H13a2,2,0,0,0,0,4h7v4.8l-2,9.8A2.1,2.1,0,0,0,19.6,38H20a2.1,2.1,0,0,0,2-1.6L23.8,27h.4L26,36.4A2.1,2.1,0,0,0,28,38h.4A2.1,2.1,0,0,0,30,35.6l-2-9.8V21h7a2,2,0,0,0,0-4Z"
           id="path833"
           style="fill:#ffffff" />
      </g>
    </g>
  </g>
  <metadata
     id="metadata945">
    <rdf:RDF>
      <cc:Work
         rdf:about="">
        <dc:title>accessibility-circle</dc:title>
      </cc:Work>
    </rdf:RDF>
  </metadata>
</svg>
