<?xml version="1.0" encoding="UTF-8" standalone="no"?>
<svg
   xmlns:dc="http://purl.org/dc/elements/1.1/"
   xmlns:cc="http://creativecommons.org/ns#"
   xmlns:rdf="http://www.w3.org/1999/02/22-rdf-syntax-ns#"
   xmlns:svg="http://www.w3.org/2000/svg"
   xmlns="http://www.w3.org/2000/svg"
   xmlns:sodipodi="http://sodipodi.sourceforge.net/DTD/sodipodi-0.dtd"
   xmlns:inkscape="http://www.inkscape.org/namespaces/inkscape"
   aria-hidden="true"
   focusable="false"
   data-prefix="fas"
   data-icon="arrow-circle-right"
   class="svg-inline--fa fa-arrow-circle-right fa-w-16"
   role="img"
   viewBox="0 0 512 512"
   version="1.1"
   id="svg4"
   sodipodi:docname="arrow-circle-right-solid.svg"
   inkscape:version="0.92.3 (2405546, 2018-03-11)">
  <metadata
     id="metadata10">
    <rdf:RDF>
      <cc:Work
         rdf:about="">
        <dc:format>image/svg+xml</dc:format>
        <dc:type
           rdf:resource="http://purl.org/dc/dcmitype/StillImage" />
      </cc:Work>
    </rdf:RDF>
  </metadata>
  <defs
     id="defs8" />
  <sodipodi:namedview
     pagecolor="#ffffff"
     bordercolor="#666666"
     borderopacity="1"
     objecttolerance="10"
     gridtolerance="10"
     guidetolerance="10"
     inkscape:pageopacity="0"
     inkscape:pageshadow="2"
     inkscape:window-width="1920"
     inkscape:window-height="1016"
     id="namedview6"
     showgrid="false"
     inkscape:zoom="0.4609375"
     inkscape:cx="260.33898"
     inkscape:cy="256"
     inkscape:window-x="0"
     inkscape:window-y="27"
     inkscape:window-maximized="1"
     inkscape:current-layer="svg4" />
  <path
     fill="currentColor"
     d="M256 8c137 0 248 111 248 248S393 504 256 504 8 393 8 256 119 8 256 8zm-28.9 143.6l75.5 72.4H120c-13.3 0-24 10.7-24 24v16c0 13.3 10.7 24 24 24h182.6l-75.5 72.4c-9.7 9.3-9.9 24.8-.4 34.3l11 10.9c9.4 9.4 24.6 9.4 33.9 0L404.3 273c9.4-9.4 9.4-24.6 0-33.9L271.6 106.3c-9.4-9.4-24.6-9.4-33.9 0l-11 10.9c-9.5 9.6-9.3 25.1.4 34.4z"
     id="path2" />
  <path
     style="opacity:1;fill:#ffffff;fill-opacity:1;fill-rule:nonzero;stroke:none;stroke-width:1.49233687;stroke-miterlimit:4;stroke-dasharray:none;stroke-opacity:0.94117647"
     d="M 224.10847,501.02856 C 117.57474,486.65277 30.95624,403.25016 12.441697,297.22034 c -3.6448916,-20.87372 -3.6448916,-61.56696 0,-82.44068 C 26.188245,136.05538 77.531487,68.200678 149.3821,33.800613 308.20651,-42.240072 493.23861,67.46527 502.19505,242.98305 c 6.24599,122.40156 -76.58616,229.47111 -197.3266,255.06612 -19.63264,4.1618 -60.75501,5.67888 -80.75998,2.97939 z M 264.09444,412.233 c 3.54367,-0.0338 131.88432,-126.85722 141.41676,-139.74495 8.36667,-11.31158 8.36667,-21.66452 0,-32.9761 -3.44205,-4.6536 -35.90306,-37.91112 -72.13559,-73.90558 -54.78624,-54.42628 -67.1557,-65.68066 -73.47053,-66.847289 -10.28482,-1.900062 -15.22104,0.315477 -28.00976,12.571739 -11.27158,10.80228 -15.00317,19.97419 -12.22171,30.03989 0.77055,2.78848 19.16836,22.37153 40.88404,43.51789 l 39.48303,38.44793 -92.60453,0.0605 c -54.74815,0.0358 -94.87906,0.92533 -98.1685,2.17595 -9.16759,3.48553 -14.227702,14.30693 -14.227702,30.42697 0,16.12004 5.060112,26.94144 14.227702,30.42697 3.28944,1.25062 43.42035,2.14016 98.1685,2.17595 l 92.60453,0.0605 -40.1356,38.69668 -40.13559,38.69668 v 11.0487 c 0,10.15213 0.7922,11.86824 9.76271,21.14857 10.83295,11.20707 20.54036,16.58865 27.11865,15.03397 2.38644,-0.56398 5.73605,-1.03878 7.44359,-1.05507 z"
     id="path817"
     inkscape:connector-curvature="0" />
</svg>
