<?xml version="1.0" encoding="UTF-8" standalone="no"?>
<svg
   xmlns:dc="http://purl.org/dc/elements/1.1/"
   xmlns:cc="http://creativecommons.org/ns#"
   xmlns:rdf="http://www.w3.org/1999/02/22-rdf-syntax-ns#"
   xmlns:svg="http://www.w3.org/2000/svg"
   xmlns="http://www.w3.org/2000/svg"
   xmlns:sodipodi="http://sodipodi.sourceforge.net/DTD/sodipodi-0.dtd"
   xmlns:inkscape="http://www.inkscape.org/namespaces/inkscape"
   enable-background="new 0 0 400 400"
   id="Layer_1"
   version="1.1"
   viewBox="0 0 400 400"
   xml:space="preserve"
   sodipodi:docname="device+gesture+handheld+swipe+tablet+touchscreen+icon-1320183551442104786_0.svg"
   inkscape:version="0.92.3 (2405546, 2018-03-11)"><metadata
     id="metadata19"><rdf:RDF><cc:Work
         rdf:about=""><dc:format>image/svg+xml</dc:format><dc:type
           rdf:resource="http://purl.org/dc/dcmitype/StillImage" /></cc:Work></rdf:RDF></metadata><defs
     id="defs17" /><sodipodi:namedview
     pagecolor="#ffffff"
     bordercolor="#666666"
     borderopacity="1"
     objecttolerance="10"
     gridtolerance="10"
     guidetolerance="10"
     inkscape:pageopacity="0"
     inkscape:pageshadow="2"
     inkscape:window-width="1228"
     inkscape:window-height="480"
     id="namedview15"
     showgrid="false"
     inkscape:zoom="0.59"
     inkscape:cx="-144.0678"
     inkscape:cy="200"
     inkscape:window-x="0"
     inkscape:window-y="27"
     inkscape:window-maximized="0"
     inkscape:current-layer="Layer_1" /><path
     inkscape:connector-curvature="0"
     style="fill:#ffffff"
     id="path6"
     d="m 143.211,213.951 c 1.381,0 2.5,-1.119 2.5,-2.5 V 60.154 h 143.086 v 193.931 h -59.043 c -1.381,0 -2.5,1.119 -2.5,2.5 0,1.381 1.119,2.5 2.5,2.5 h 61.543 c 1.381,0 2.5,-1.119 2.5,-2.5 V 57.654 c 0,-1.381 -1.119,-2.5 -2.5,-2.5 H 143.211 c -1.381,0 -2.5,1.119 -2.5,2.5 v 153.797 c 0,1.381 1.119,2.5 2.5,2.5 z" /><path
     inkscape:connector-curvature="0"
     style="fill:#ffffff"
     id="path8"
     d="M 309.703,34.174 H 124.804 c -2.761,0 -5,2.239 -5,5 v 181.225 c -1.948,0.207 -3.869,0.727 -5.688,1.599 -4.188,2.006 -7.345,5.524 -8.888,9.905 l -14.103,40.034 c -0.753,2.25 -1.745,5.744 -2.436,10.123 -0.138,0.205 -0.258,0.427 -0.332,0.677 -7.721,25.894 -0.547,52.959 18.277,68.953 14.135,12.01 30.584,14.138 40.457,14.137 2.124,0 3.945,-0.099 5.371,-0.218 1.376,-0.116 2.398,-1.325 2.282,-2.7 -0.116,-1.377 -1.337,-2.401 -2.7,-2.282 -7.434,0.627 -26.425,0.632 -42.172,-12.747 -10.716,-9.105 -17.308,-22.157 -19.084,-36.47 0.448,1.407 0.95,2.826 1.524,4.256 2.319,5.767 9.438,20.25 25.427,30.144 10.154,6.283 21.628,9.518 33.298,9.518 4.718,0 9.469,-0.529 14.177,-1.599 5.708,-1.288 11.208,-3.366 16.348,-6.175 0.283,-0.148 0.558,-0.304 0.835,-0.46 l 0.27,-0.152 c 3.761,-2.152 7.334,-4.724 10.622,-7.645 2.626,-2.02 28.185,-21.873 29.264,-22.711 l 21.588,-16.45 h 65.562 c 2.761,0 5,-2.239 5,-5 V 39.174 c 0,-2.762 -2.239,-5 -5,-5 z m -93.248,274.484 c -0.28,0.217 -27.998,21.748 -29.383,22.803 l -0.302,0.25 c -2.808,2.509 -5.859,4.712 -9.033,6.529 l -0.271,0.153 c -0.188,0.106 -0.375,0.213 -0.567,0.313 l -0.096,0.051 c -4.334,2.374 -8.974,4.129 -13.796,5.217 -13.787,3.131 -27.993,0.763 -40.005,-6.67 -13.847,-8.569 -19.889,-21.585 -21.411,-25.371 -6.554,-16.3 -2.87,-31.182 -1.007,-36.75 l 14.077,-39.96 c 0.656,-1.862 1.997,-3.356 3.776,-4.208 1.011,-0.484 2.095,-0.729 3.185,-0.729 0.827,0 1.658,0.141 2.461,0.424 v 0 c 1.256,0.443 2.368,1.215 3.212,2.232 0.382,0.46 0.726,0.996 1.006,1.557 0.073,0.17 0.126,0.362 0.188,0.552 0.435,1.352 1.76,5.464 6.335,5.99 1.88,0.221 5.383,-0.115 7.721,-4.762 0.583,-1.158 0.911,-1.787 1.424,-2.295 0.715,-0.709 1.591,-1.278 2.533,-1.645 3.407,-1.327 8.133,0.345 9.542,3.374 0.514,1.103 0.564,2.206 0.515,2.956 -0.191,3.106 1.964,5.915 5.012,6.532 3.048,0.619 6.132,-1.127 7.164,-4.062 l 0.426,-1.208 c 0.397,-1.127 1.035,-2.11 1.896,-2.92 2.024,-1.906 4.91,-2.516 7.528,-1.594 1.861,0.656 3.355,1.997 4.208,3.777 0.853,1.78 0.961,3.785 0.305,5.646 l -0.531,1.506 c -0.548,1.498 -0.488,3.102 0.17,4.525 0.66,1.426 1.891,2.544 3.375,3.066 1.475,0.521 3.122,0.423 4.516,-0.268 1.413,-0.7 2.474,-1.929 2.994,-3.467 l 17.551,-49.821 c 0.396,-1.126 1.034,-2.108 1.894,-2.918 2.025,-1.906 4.912,-2.516 7.528,-1.594 3.842,1.354 5.867,5.581 4.514,9.423 l -27.876,79.131 c -1.204,3.168 -0.255,6.712 2.383,8.854 2.055,1.669 4.73,2.148 7.163,1.419 0.766,-0.205 1.51,-0.533 2.202,-0.989 l 5.435,-3.574 h -0.123 l 16.36,-10.847 0.47,-0.353 c 3.104,-2.631 7.772,-2.242 10.408,0.867 2.609,3.075 2.253,7.689 -0.778,10.341 z m 88.248,-18.523 h -52.36 c 1.878,-5.588 0.895,-11.991 -3.185,-16.8 -6.13,-7.233 -16.945,-8.203 -24.254,-2.232 l -16.146,10.704 25.783,-73.191 c 3.186,-9.043 -1.579,-18.992 -10.622,-22.178 -6.162,-2.171 -12.945,-0.736 -17.707,3.746 -2.006,1.89 -3.553,4.268 -4.471,6.877 l -12.105,34.364 c -2.001,-2.475 -4.652,-4.355 -7.729,-5.438 -6.162,-2.171 -12.946,-0.736 -17.705,3.745 -0.013,0.012 -0.025,0.024 -0.038,0.036 -4.256,-6.686 -13.536,-9.764 -21.292,-6.744 -2.208,0.86 -4.264,2.196 -5.945,3.862 -0.341,0.338 -0.648,0.678 -0.928,1.017 -0.318,-0.469 -0.656,-0.918 -1.011,-1.346 -1.44,-1.734 -3.206,-3.159 -5.185,-4.214 V 44.174 h 174.898 v 245.961 z" /><path
     inkscape:connector-curvature="0"
     style="fill:#ffffff"
     id="path10"
     d="m 244.504,202.2 c 0,6.659 -2.444,13.054 -6.883,18.009 -0.921,1.028 -0.834,2.609 0.194,3.53 0.477,0.427 1.073,0.638 1.667,0.638 0.686,0 1.369,-0.281 1.863,-0.832 5.261,-5.873 8.159,-13.454 8.159,-21.345 0,-17.645 -14.355,-32 -32,-32 -17.645,0 -32,14.355 -32,32 0,2.087 0.203,4.176 0.602,6.207 0.267,1.355 1.587,2.237 2.936,1.971 1.355,-0.267 2.237,-1.581 1.971,-2.936 -0.337,-1.714 -0.508,-3.478 -0.508,-5.242 0,-14.888 12.112,-27 27,-27 14.888,0 26.999,12.113 26.999,27 z" /></svg>